<svg width="24" height="24" viewBox="0 0 24 24" fill="none" xmlns="http://www.w3.org/2000/svg">
<path d="M16.1277 10.947C14.7745 10.947 14.5865 12.2979 14.5865 12.2979H17.4641C17.4637 12.2979 17.4824 10.947 16.1277 10.947Z" fill="#333333"/>
<path d="M9.60285 12.301H7.05191V14.6429H9.31035C9.34879 14.6429 9.40644 14.6438 9.47347 14.6429C9.83675 14.6345 10.5253 14.5285 10.5253 13.5043C10.5258 12.2884 9.60285 12.301 9.60285 12.301Z" fill="#333333"/>
<path d="M12.0003 1.50024C6.20097 1.50024 1.49988 6.2004 1.49988 11.9998C1.49988 17.7992 6.20097 22.5002 12.0003 22.5002C17.7988 22.5002 22.4999 17.7992 22.4999 11.9998C22.4999 6.20087 17.7983 1.50024 12.0003 1.50024ZM14.2105 7.95165H17.825V9.03024H14.2105V7.95165ZM12.3833 13.6113C12.3833 16.2856 9.60082 16.197 9.60082 16.197H5.04175V7.43603H9.60082C10.986 7.43603 12.0791 8.20103 12.0791 9.76853C12.0791 11.336 10.7422 11.4359 10.7422 11.4359C12.5047 11.4359 12.3833 13.6113 12.3833 13.6113ZM19.1455 13.4679H14.6057C14.6057 15.0949 16.1474 14.9927 16.1474 14.9927C17.6033 14.9927 17.5522 14.0501 17.5522 14.0501H19.0944C19.0944 16.5518 16.0953 16.3802 16.0953 16.3802C12.4982 16.3802 12.7297 13.0306 12.7297 13.0306C12.7297 13.0306 12.7264 9.66493 16.0953 9.66493C19.6414 9.6654 19.1455 13.4679 19.1455 13.4679Z" fill="#333333"/>
<path d="M10.2225 9.90539C10.2225 8.99414 9.60285 8.99414 9.60285 8.99414H7.05191V10.9488H9.44441C9.85738 10.9488 10.2225 10.8162 10.2225 9.90539Z" fill="#333333"/>
</svg>
