<svg width="46" height="46" viewBox="0 0 46 46" fill="none" xmlns="http://www.w3.org/2000/svg">
<circle cx="23" cy="23" r="23" fill="#F11C1C"/>
<path d="M13.9802 29.0193C13.4549 29.5446 13.0629 30.1602 12.8903 30.7305C12.7178 31.3009 12.7789 31.7794 13.0602 32.0607C13.3415 32.342 13.8199 32.4031 14.3903 32.2305C14.9607 32.058 15.5762 31.6659 16.1016 31.1406L31.9473 15.2948C32.4726 14.7695 32.8647 14.154 33.0372 13.5836C33.2098 13.0132 33.1487 12.5348 32.8674 12.2535C32.5861 11.9721 32.1076 11.911 31.5372 12.0836C30.9669 12.2561 30.3513 12.6482 29.826 13.1735L13.9802 29.0193Z" fill="white"/>
<path d="M23 22.5C23 22.1022 23.0105 21.7206 23.0293 21.4393C23.048 21.158 23.0735 21 23.1 21H23.9C23.9265 21 23.952 21.158 23.9707 21.4393C23.9895 21.7206 24 22.1022 24 22.5C24 22.8978 23.9895 23.2794 23.9707 23.5607C23.952 23.842 23.9265 24 23.9 24H23.1C23.0735 24 23.048 23.842 23.0293 23.5607C23.0105 23.2794 23 22.8978 23 22.5Z" fill="white"/>
<path d="M13.0604 12.0607C13.3417 11.7794 13.8201 11.7182 14.3903 11.8906C14.9605 12.0629 15.5759 12.4548 16.101 12.9799L31.9402 28.8191C32.4653 29.3442 32.8571 29.9595 33.0295 30.5298C33.2019 31.1 33.1407 31.5783 32.8594 31.8597C32.5781 32.141 32.0997 32.2021 31.5295 32.0298C30.9593 31.8574 30.344 31.4655 29.8189 30.9404L13.9797 15.1012C13.4546 14.5761 13.0627 13.9608 12.8903 13.3906C12.7179 12.8203 12.7791 12.342 13.0604 12.0607Z" fill="white"/>
</svg>
