<svg width="24" height="24" viewBox="0 0 24 24" fill="none" xmlns="http://www.w3.org/2000/svg">
<path d="M11.9995 0.570557C5.68752 0.570557 0.570953 5.68713 0.570953 11.9991C0.570953 18.3111 5.68752 23.4277 11.9995 23.4277C18.3115 23.4277 23.4281 18.3111 23.4281 11.9991C23.4281 5.68713 18.3115 0.570557 11.9995 0.570557ZM11.9995 2.22656C14.4892 2.22656 16.7618 3.15798 18.4875 4.69056C17.2195 6.36313 15.2932 7.47684 13.363 8.23056C12.2702 6.24047 11.0456 4.32571 9.69724 2.49913C10.4513 2.31736 11.2244 2.22586 12.0001 2.22656H11.9995ZM7.84181 3.15227C9.1161 5.05856 10.3504 6.82598 11.4778 8.82656C8.62638 9.56541 5.4041 10.0088 2.42752 10.0163C3.05495 6.9717 5.1001 4.4437 7.84181 3.15284V3.15227ZM19.5715 5.82084C20.9837 7.54653 21.7605 9.70475 21.7721 11.9346C19.5115 11.4888 17.2635 11.3723 14.9744 11.6031C14.7172 10.9614 14.4052 10.3517 14.1064 9.69455C16.0795 8.89855 18.1892 7.53627 19.5715 5.82027V5.82084ZM12.2715 10.3386C12.5161 10.8586 12.7995 11.4106 13.0658 11.9746C9.88295 13.378 6.49724 15.2534 4.7401 18.5414C3.05324 16.6747 2.15427 14.2276 2.23152 11.7128C5.6401 11.6968 8.98581 11.2706 12.2715 10.3386ZM17.4361 13.0031C18.8583 13.0034 20.2746 13.1859 21.6504 13.546C21.4382 14.8695 20.9561 16.1353 20.2338 17.2645C19.5116 18.3938 18.5647 19.3623 17.4521 20.11C16.9275 17.7243 16.4275 15.4414 15.5435 13.1397C16.1701 13.0484 16.8024 13.0026 17.4355 13.0026L17.4361 13.0031ZM21.7012 13.1803C21.6944 13.2363 21.6881 13.2911 21.6801 13.346C21.6881 13.2906 21.695 13.2357 21.7012 13.1803ZM13.7355 13.586C14.6361 15.9134 15.343 18.4906 15.8172 20.9986C14.6099 21.5108 13.3116 21.774 12.0001 21.7723C9.82744 21.7754 7.71625 21.0512 6.00295 19.7151C7.77267 16.8443 10.5138 14.6717 13.735 13.5866L13.7355 13.586Z" fill="#333333"/>
</svg>
