<svg width="36" height="36" viewBox="0 0 36 36" fill="none" xmlns="http://www.w3.org/2000/svg">
<path d="M33.8228 16C33.8228 24.834 26.6568 32 17.8228 32C8.98676 32 1.82277 24.834 1.82277 16C1.82277 7.164 8.98676 0 17.8228 0C26.6568 0 33.8228 7.164 33.8228 16Z" fill="#FFCC4D"/>
<path d="M25.6838 16.1291C25.5338 15.9681 25.3098 15.9581 25.1488 16.1001C25.1158 16.1291 21.8458 19.0001 17.8228 19.0001C13.8098 19.0001 10.5298 16.1291 10.4968 16.1001C10.3348 15.9581 10.1118 15.9701 9.96177 16.1291C9.81277 16.2891 9.77977 16.5531 9.88277 16.7571C9.99077 16.9721 12.5918 22.0001 17.8228 22.0001C23.0538 22.0001 25.6558 16.9721 25.7628 16.7571C25.8658 16.5521 25.8328 16.2891 25.6838 16.1291Z" fill="#664500"/>
<path d="M13.2158 23.1539L11.6768 20.9349C11.6768 20.9349 11.1338 20.0679 10.2658 20.6099C9.39877 21.1509 9.94177 22.0189 9.94177 22.0189L11.6998 25.3989C11.6998 25.3989 11.8438 26.1669 10.7818 25.3079C10.3188 24.9339 10.5848 25.1449 10.5848 25.1449L10.1448 24.7839L4.65377 20.2759C4.65377 20.2759 3.94477 19.5279 3.29477 20.3179C2.64677 21.1089 3.51777 21.6589 3.51777 21.6589L8.71076 25.9249C8.59076 26.0449 8.22877 26.4589 8.11077 26.5879L2.55377 22.0279C2.55377 22.0279 1.84377 21.2789 1.19577 22.0689C0.545766 22.8599 1.41777 23.4099 1.41777 23.4099L6.97277 27.9719C6.86977 28.1119 6.60977 28.4479 6.51377 28.5859L1.72177 24.6519C1.72177 24.6519 1.01177 23.9039 0.363766 24.6939C-0.287234 25.4849 0.585766 26.0359 0.585766 26.0359L5.67977 30.2199C5.61577 30.3979 5.31677 30.8659 5.26977 31.0399L1.59777 28.0279C1.59777 28.0279 0.888766 27.2759 0.240766 28.0689C-0.409234 28.8599 0.462766 29.4099 0.462766 29.4099L6.39277 34.2779L6.78777 34.6039C9.40777 36.7549 13.2768 36.3749 15.4278 33.7549C17.3988 31.3519 17.2448 27.9019 15.1878 25.6859C14.4588 24.9039 13.8278 24.0329 13.2158 23.1539ZM35.4058 28.0699C34.7578 27.2769 34.0488 28.0289 34.0488 28.0289L30.3768 31.0409C30.3298 30.8669 30.0308 30.3979 29.9668 30.2209L35.0608 26.0369C35.0608 26.0369 35.9338 25.4859 35.2838 24.6949C34.6358 23.9049 33.9258 24.6529 33.9258 24.6529L29.1338 28.5869C29.0378 28.4479 28.7768 28.1119 28.6748 27.9729L34.2298 23.4109C34.2298 23.4109 35.1028 22.8609 34.4528 22.0699C33.8048 21.2799 33.0958 22.0289 33.0958 22.0289L27.5378 26.5889C27.4208 26.4599 27.0588 26.0459 26.9378 25.9259L32.1308 21.6599C32.1308 21.6599 33.0008 21.1099 32.3538 20.3189C31.7038 19.5289 30.9948 20.2769 30.9948 20.2769L25.5038 24.7849L25.0648 25.1459C25.0648 25.1459 26.0548 24.3049 24.8678 25.3089C23.6798 26.3129 23.9498 25.3999 23.9498 25.3999L25.7078 22.0199C25.7078 22.0199 26.2508 21.1519 25.3838 20.6109C24.5148 20.0689 23.9728 20.9359 23.9728 20.9359L22.4348 23.1549C21.8218 24.0339 21.1908 24.9049 20.4608 25.6879C18.4028 27.9049 18.2488 31.3539 20.2218 33.7569C22.3718 36.3769 26.2418 36.7569 28.8618 34.6059L29.2578 34.2799L35.1878 29.4119C35.1828 29.4109 36.0548 28.8609 35.4058 28.0699Z" fill="#F4900C"/>
<path d="M27.4998 10.983C27.4488 10.861 26.2148 8 23.6788 8C21.1448 8 19.9108 10.861 19.8598 10.983C19.7798 11.171 19.8318 11.389 19.9828 11.519C20.1318 11.647 20.3478 11.651 20.5058 11.531C20.5158 11.522 21.5868 10.715 23.6788 10.715C25.7578 10.715 26.8278 11.512 26.8528 11.531C26.9278 11.59 27.0178 11.62 27.1078 11.62C27.2028 11.62 27.2968 11.586 27.3748 11.521C27.5278 11.392 27.5798 11.171 27.4998 10.983ZM16.4998 10.983C16.4478 10.861 15.2148 8 12.6788 8C10.1448 8 8.91077 10.861 8.85877 10.983C8.77977 11.171 8.83077 11.389 8.98277 11.519C9.13277 11.647 9.34877 11.651 9.50577 11.531C9.51677 11.522 10.5868 10.715 12.6788 10.715C14.7588 10.715 15.8278 11.512 15.8518 11.531C15.9278 11.59 16.0168 11.62 16.1068 11.62C16.2018 11.62 16.2958 11.586 16.3738 11.521C16.5278 11.392 16.5788 11.171 16.4998 10.983Z" fill="#664500"/>
<path d="M11.0048 25.478C11.0048 25.478 8.41177 28.792 11.4888 32.938C11.7008 33.223 12.2388 33.084 12.0098 32.75C11.7598 32.386 9.25977 28.854 11.6098 25.693C11.6098 25.693 11.2288 25.646 11.0048 25.478ZM24.5878 25.576C24.5878 25.576 27.1818 28.89 24.1038 33.036C23.8918 33.321 23.3538 33.182 23.5828 32.848C23.8328 32.484 26.3328 28.952 23.9828 25.791C23.9818 25.792 24.3638 25.745 24.5878 25.576Z" fill="#B55005"/>
</svg>
