<svg width="24" height="24" viewBox="0 0 24 24" fill="none" xmlns="http://www.w3.org/2000/svg">
<path d="M12.002 0.480225C5.63956 0.480225 0.481964 5.63783 0.481964 12.0002C0.481964 18.3626 5.63956 23.5202 12.002 23.5202C18.3644 23.5202 23.522 18.3626 23.522 12.0002C23.522 5.63783 18.3644 0.480225 12.002 0.480225ZM9.18196 16.775H6.84916V9.26783H9.18196V16.775ZM8.00116 8.34622C7.26436 8.34622 6.78796 7.82422 6.78796 7.17862C6.78796 6.51982 7.27876 6.01342 8.03116 6.01342C8.78356 6.01342 9.24436 6.51982 9.25876 7.17862C9.25876 7.82422 8.78356 8.34622 8.00116 8.34622ZM17.702 16.775H15.3692V12.6146C15.3692 11.6462 15.0308 10.9886 14.1872 10.9886C13.5428 10.9886 13.16 11.4338 12.9908 11.8622C12.9284 12.0146 12.9128 12.2306 12.9128 12.4454V16.7738H10.5788V11.6618C10.5788 10.7246 10.5488 9.94102 10.5176 9.26663H12.5444L12.6512 10.3094H12.698C13.0052 9.81983 13.7576 9.09742 15.0164 9.09742C16.5512 9.09742 17.702 10.1258 17.702 12.3362V16.775Z" fill="#333333"/>
</svg>
