<svg width="42" height="24" viewBox="0 0 42 24" fill="none" xmlns="http://www.w3.org/2000/svg">
<path d="M23.1734 11.666C23.1734 18.109 17.9858 23.3324 11.5865 23.3324C5.18715 23.3324 0 18.1106 0 11.666C0 5.22138 5.18754 0 11.5865 0C17.9854 0 23.1734 5.22296 23.1734 11.666ZM35.8843 11.666C35.8843 17.7313 33.2904 22.6478 30.0909 22.6478C26.8914 22.6478 24.2974 17.7297 24.2974 11.666C24.2974 5.60224 26.8914 0.684198 30.0909 0.684198C33.2904 0.684198 35.8843 5.60224 35.8843 11.666ZM41.0833 11.666C41.0833 17.1002 40.1709 21.5052 39.0456 21.5052C37.9204 21.5052 37.008 17.0986 37.008 11.666C37.008 6.23332 37.9204 1.82676 39.046 1.82676C40.1717 1.82676 41.0833 6.23214 41.0833 11.666Z" fill="black"/>
</svg>
