<svg width="46" height="46" viewBox="0 0 46 46" fill="none" xmlns="http://www.w3.org/2000/svg">
<circle cx="23" cy="23" r="23" fill="#F11C1C"/>
<path d="M23 12.5C22.6022 12.5 22.2206 12.658 21.9393 12.9393C21.658 13.2206 21.5 13.6022 21.5 14C21.5 14.3978 21.658 14.7794 21.9393 15.0607C22.2206 15.342 22.6022 15.5 23 15.5H35C35.3978 15.5 35.7794 15.342 36.0607 15.0607C36.342 14.7794 36.5 14.3978 36.5 14C36.5 13.6022 36.342 13.2206 36.0607 12.9393C35.7794 12.658 35.3978 12.5 35 12.5H23Z" fill="white"/>
<path d="M15.5 23C15.5 22.6022 15.658 22.2206 15.9393 21.9393C16.2206 21.658 16.6022 21.5 17 21.5H29C29.3978 21.5 29.7794 21.658 30.0607 21.9393C30.342 22.2206 30.5 22.6022 30.5 23C30.5 23.3978 30.342 23.7794 30.0607 24.0607C29.7794 24.342 29.3978 24.5 29 24.5H17C16.6022 24.5 16.2206 24.342 15.9393 24.0607C15.658 23.7794 15.5 23.3978 15.5 23Z" fill="white"/>
<path d="M9.5 32C9.5 31.6022 9.65804 31.2206 9.93934 30.9393C10.2206 30.658 10.6022 30.5 11 30.5H23C23.3978 30.5 23.7794 30.658 24.0607 30.9393C24.342 31.2206 24.5 31.6022 24.5 32C24.5 32.3978 24.342 32.7794 24.0607 33.0607C23.7794 33.342 23.3978 33.5 23 33.5H11C10.6022 33.5 10.2206 33.342 9.93934 33.0607C9.65804 32.7794 9.5 32.3978 9.5 32Z" fill="white"/>
</svg>
