<svg width="93" height="82" viewBox="0 0 93 82" fill="none" xmlns="http://www.w3.org/2000/svg">
<path opacity="0.1" d="M74.6862 82C68.9631 82 63.9077 79.8133 59.52 75.44C55.3231 71.0667 53.2246 63.8412 53.2246 53.7635C53.2246 34.3687 61.5231 16.9704 78.12 1.56869C80.7908 -0.332755 83.08 -0.332755 84.9877 1.56869L88.9938 5.56173C90.9015 7.46319 90.52 9.64986 87.8492 12.1217C75.4492 22.1994 69.2492 33.9884 69.2492 47.4887L71.2523 47.2035C72.7785 46.8232 74.1138 46.6331 75.2585 46.6331C80.2185 46.6331 84.4154 48.3444 87.8492 51.767C91.2831 55.1896 93 59.3728 93 64.3165C93 69.2603 91.1877 73.4435 87.5631 76.8661C84.1292 80.2887 79.8369 82 74.6862 82ZM21.1754 82C15.4523 82 10.4923 79.8133 6.29538 75.44C2.09846 71.0667 0 63.8412 0 53.7635C0 34.3687 8.29846 16.9704 24.8954 1.56869C27.5662 -0.522897 29.76 -0.522897 31.4769 1.56869L35.7692 5.56173C37.6769 7.84347 37.2 10.0301 34.3385 12.1217C22.1292 23.1501 15.9292 34.9391 15.7385 47.4887L18.0277 47.2035C19.5538 46.8232 20.8892 46.6331 22.0338 46.6331C26.8031 46.6331 30.9046 48.4394 34.3385 52.0522C37.9631 55.4748 39.7754 59.5629 39.7754 64.3165C39.7754 69.2603 37.9631 73.4435 34.3385 76.8661C30.7138 80.2887 26.3261 82 21.1754 82Z" fill="white"/>
</svg>
