<svg width="24" height="24" viewBox="0 0 24 24" fill="none" xmlns="http://www.w3.org/2000/svg">
<path d="M19.6326 7.99558C19.6456 8.17058 19.6456 8.34458 19.6456 8.51858C19.6456 13.8436 15.5926 19.9796 8.18557 19.9796C5.90357 19.9796 3.78357 19.3186 1.99957 18.1706C2.32357 18.2076 2.63557 18.2206 2.97257 18.2206C4.78556 18.225 6.54722 17.6187 7.97357 16.4996C7.13299 16.4844 6.31815 16.207 5.64281 15.7063C4.96747 15.2056 4.46536 14.5065 4.20657 13.7066C4.45557 13.7436 4.70557 13.7686 4.96757 13.7686C5.32857 13.7686 5.69157 13.7186 6.02857 13.6316C5.11633 13.4474 4.29605 12.9529 3.70719 12.2323C3.11834 11.5116 2.79727 10.6092 2.79857 9.67858V9.62858C3.33557 9.92758 3.95857 10.1146 4.61857 10.1396C4.06566 9.77216 3.61229 9.2736 3.29891 8.68837C2.98553 8.10314 2.82189 7.44943 2.82257 6.78558C2.82257 6.03758 3.02157 5.35158 3.37057 4.75358C4.38271 5.9986 5.64508 7.01714 7.07591 7.74324C8.50674 8.46933 10.0741 8.88679 11.6766 8.96858C11.6146 8.66858 11.5766 8.35758 11.5766 8.04558C11.5763 7.51654 11.6803 6.99264 11.8826 6.50382C12.085 6.015 12.3817 5.57085 12.7558 5.19677C13.1298 4.82268 13.574 4.52599 14.0628 4.32366C14.5516 4.12132 15.0755 4.01732 15.6046 4.01758C16.7646 4.01758 17.8116 4.50358 18.5476 5.28958C19.4493 5.1152 20.3141 4.786 21.1036 4.31658C20.803 5.24739 20.1733 6.03668 19.3326 6.53658C20.1324 6.44536 20.914 6.23503 21.6516 5.91258C21.1007 6.71568 20.4181 7.41992 19.6326 7.99558Z" fill="#333333"/>
</svg>
